<mxfile host="app.diagrams.net" agent="Mozilla/5.0 (Windows NT 10.0; Win64; x64) AppleWebKit/537.36 (KHTML, like Gecko) Chrome/139.0.0.0 Safari/537.36" version="28.2.1">
  <diagram name="Page-1" id="3VrqLhc25iHMusVPEtdp">
    <mxGraphModel dx="1572" dy="878" grid="1" gridSize="10" guides="1" tooltips="1" connect="1" arrows="1" fold="1" page="1" pageScale="1" pageWidth="1600" pageHeight="900" math="0" shadow="0" adaptiveColors="simple">
      <root>
        <mxCell id="0" />
        <mxCell id="1" parent="0" />
        <mxCell id="XlbqTxg1h4bi9WBRk2iL-1" value="&lt;font style=&quot;font-size: 17px;&quot; face=&quot;Helvetica&quot;&gt;User Uploads PDF&lt;/font&gt;" style="rhombus;whiteSpace=wrap;html=1;hachureGap=4;fontFamily=Architects Daughter;fontSource=https%3A%2F%2Ffonts.googleapis.com%2Fcss%3Ffamily%3DArchitects%2BDaughter;" vertex="1" parent="1">
          <mxGeometry x="80" y="80" width="280" height="160" as="geometry" />
        </mxCell>
        <mxCell id="XlbqTxg1h4bi9WBRk2iL-10" value="&lt;span style=&quot;font-family: Helvetica; font-size: 17px;&quot;&gt;Backend Extracts Text&lt;/span&gt;" style="rhombus;whiteSpace=wrap;html=1;hachureGap=4;fontFamily=Architects Daughter;fontSource=https%3A%2F%2Ffonts.googleapis.com%2Fcss%3Ffamily%3DArchitects%2BDaughter;" vertex="1" parent="1">
          <mxGeometry x="480" y="80" width="280" height="160" as="geometry" />
        </mxCell>
        <mxCell id="XlbqTxg1h4bi9WBRk2iL-11" value="&lt;span style=&quot;font-family: Helvetica; font-size: 17px;&quot;&gt;Generate Embeddings&lt;/span&gt;&lt;div&gt;&lt;span style=&quot;font-family: Helvetica; font-size: 17px;&quot;&gt;&amp;nbsp;via OpenAI&lt;/span&gt;&lt;/div&gt;" style="rhombus;whiteSpace=wrap;html=1;hachureGap=4;fontFamily=Architects Daughter;fontSource=https%3A%2F%2Ffonts.googleapis.com%2Fcss%3Ffamily%3DArchitects%2BDaughter;" vertex="1" parent="1">
          <mxGeometry x="880" y="80" width="280" height="160" as="geometry" />
        </mxCell>
        <mxCell id="XlbqTxg1h4bi9WBRk2iL-12" value="&lt;font face=&quot;Helvetica&quot;&gt;&lt;span style=&quot;font-size: 17px;&quot;&gt;Store Embeddings&lt;/span&gt;&lt;/font&gt;&lt;div&gt;&lt;font face=&quot;Helvetica&quot;&gt;&lt;span style=&quot;font-size: 17px;&quot;&gt;&amp;nbsp;in Vector DB&lt;/span&gt;&lt;/font&gt;&lt;/div&gt;" style="rhombus;whiteSpace=wrap;html=1;hachureGap=4;fontFamily=Architects Daughter;fontSource=https%3A%2F%2Ffonts.googleapis.com%2Fcss%3Ffamily%3DArchitects%2BDaughter;" vertex="1" parent="1">
          <mxGeometry x="1280" y="80" width="280" height="160" as="geometry" />
        </mxCell>
        <mxCell id="XlbqTxg1h4bi9WBRk2iL-13" value="&lt;span style=&quot;font-family: Helvetica; font-size: 17px;&quot;&gt;User Asks Question&lt;/span&gt;" style="rhombus;whiteSpace=wrap;html=1;hachureGap=4;fontFamily=Architects Daughter;fontSource=https%3A%2F%2Ffonts.googleapis.com%2Fcss%3Ffamily%3DArchitects%2BDaughter;" vertex="1" parent="1">
          <mxGeometry x="1280" y="360" width="280" height="160" as="geometry" />
        </mxCell>
        <mxCell id="XlbqTxg1h4bi9WBRk2iL-14" value="&lt;span style=&quot;font-family: Helvetica; font-size: 17px;&quot;&gt;Frontend Displays in Chat UI&lt;/span&gt;" style="rhombus;whiteSpace=wrap;html=1;hachureGap=4;fontFamily=Architects Daughter;fontSource=https%3A%2F%2Ffonts.googleapis.com%2Fcss%3Ffamily%3DArchitects%2BDaughter;" vertex="1" parent="1">
          <mxGeometry x="80" y="640" width="280" height="160" as="geometry" />
        </mxCell>
        <mxCell id="XlbqTxg1h4bi9WBRk2iL-15" value="&lt;span style=&quot;font-family: Helvetica; font-size: 17px;&quot;&gt;Return AI Answer + Save Conversation&lt;/span&gt;" style="rhombus;whiteSpace=wrap;html=1;hachureGap=4;fontFamily=Architects Daughter;fontSource=https%3A%2F%2Ffonts.googleapis.com%2Fcss%3Ffamily%3DArchitects%2BDaughter;" vertex="1" parent="1">
          <mxGeometry x="80" y="360" width="280" height="160" as="geometry" />
        </mxCell>
        <mxCell id="XlbqTxg1h4bi9WBRk2iL-16" value="&lt;span style=&quot;font-family: Helvetica; font-size: 17px;&quot;&gt;Send Context + Question to GPT&lt;/span&gt;" style="rhombus;whiteSpace=wrap;html=1;hachureGap=4;fontFamily=Architects Daughter;fontSource=https%3A%2F%2Ffonts.googleapis.com%2Fcss%3Ffamily%3DArchitects%2BDaughter;" vertex="1" parent="1">
          <mxGeometry x="480" y="360" width="280" height="160" as="geometry" />
        </mxCell>
        <mxCell id="XlbqTxg1h4bi9WBRk2iL-17" value="&lt;span style=&quot;font-family: Helvetica; font-size: 17px;&quot;&gt;Retrieve Relevant Chunks&lt;/span&gt;&lt;div&gt;&lt;span style=&quot;font-family: Helvetica; font-size: 17px;&quot;&gt;&amp;nbsp;from Vector DB&lt;/span&gt;&lt;/div&gt;" style="rhombus;whiteSpace=wrap;html=1;hachureGap=4;fontFamily=Architects Daughter;fontSource=https%3A%2F%2Ffonts.googleapis.com%2Fcss%3Ffamily%3DArchitects%2BDaughter;" vertex="1" parent="1">
          <mxGeometry x="880" y="360" width="280" height="160" as="geometry" />
        </mxCell>
        <mxCell id="XlbqTxg1h4bi9WBRk2iL-18" value="" style="shape=flexArrow;endArrow=classic;html=1;hachureGap=4;fontFamily=Architects Daughter;fontSource=https%3A%2F%2Ffonts.googleapis.com%2Fcss%3Ffamily%3DArchitects%2BDaughter;rounded=1;entryX=0;entryY=0.5;entryDx=0;entryDy=0;exitX=1;exitY=0.5;exitDx=0;exitDy=0;shadow=0;flowAnimation=0;strokeColor=default;" edge="1" parent="1" source="XlbqTxg1h4bi9WBRk2iL-1" target="XlbqTxg1h4bi9WBRk2iL-10">
          <mxGeometry width="50" height="50" relative="1" as="geometry">
            <mxPoint x="610" y="410" as="sourcePoint" />
            <mxPoint x="660" y="360" as="targetPoint" />
          </mxGeometry>
        </mxCell>
        <mxCell id="XlbqTxg1h4bi9WBRk2iL-19" value="" style="shape=flexArrow;endArrow=classic;html=1;hachureGap=4;fontFamily=Architects Daughter;fontSource=https%3A%2F%2Ffonts.googleapis.com%2Fcss%3Ffamily%3DArchitects%2BDaughter;rounded=1;entryX=0;entryY=0.5;entryDx=0;entryDy=0;exitX=1;exitY=0.5;exitDx=0;exitDy=0;shadow=0;flowAnimation=0;strokeColor=default;" edge="1" parent="1">
          <mxGeometry width="50" height="50" relative="1" as="geometry">
            <mxPoint x="760" y="160" as="sourcePoint" />
            <mxPoint x="880" y="160" as="targetPoint" />
          </mxGeometry>
        </mxCell>
        <mxCell id="XlbqTxg1h4bi9WBRk2iL-20" value="" style="shape=flexArrow;endArrow=classic;html=1;hachureGap=4;fontFamily=Architects Daughter;fontSource=https%3A%2F%2Ffonts.googleapis.com%2Fcss%3Ffamily%3DArchitects%2BDaughter;rounded=1;entryX=0;entryY=0.5;entryDx=0;entryDy=0;exitX=1;exitY=0.5;exitDx=0;exitDy=0;shadow=0;flowAnimation=0;strokeColor=default;" edge="1" parent="1">
          <mxGeometry width="50" height="50" relative="1" as="geometry">
            <mxPoint x="1160" y="159" as="sourcePoint" />
            <mxPoint x="1280" y="159" as="targetPoint" />
          </mxGeometry>
        </mxCell>
        <mxCell id="XlbqTxg1h4bi9WBRk2iL-21" value="" style="shape=flexArrow;endArrow=classic;html=1;hachureGap=4;fontFamily=Architects Daughter;fontSource=https%3A%2F%2Ffonts.googleapis.com%2Fcss%3Ffamily%3DArchitects%2BDaughter;rounded=1;entryX=1;entryY=0.5;entryDx=0;entryDy=0;exitX=0;exitY=0.5;exitDx=0;exitDy=0;shadow=0;flowAnimation=0;strokeColor=default;" edge="1" parent="1" source="XlbqTxg1h4bi9WBRk2iL-13" target="XlbqTxg1h4bi9WBRk2iL-17">
          <mxGeometry width="50" height="50" relative="1" as="geometry">
            <mxPoint x="1250" y="370" as="sourcePoint" />
            <mxPoint x="1370" y="370" as="targetPoint" />
          </mxGeometry>
        </mxCell>
        <mxCell id="XlbqTxg1h4bi9WBRk2iL-22" value="" style="shape=flexArrow;endArrow=classic;html=1;hachureGap=4;fontFamily=Architects Daughter;fontSource=https%3A%2F%2Ffonts.googleapis.com%2Fcss%3Ffamily%3DArchitects%2BDaughter;rounded=1;entryX=1;entryY=0.5;entryDx=0;entryDy=0;exitX=0;exitY=0.5;exitDx=0;exitDy=0;shadow=0;flowAnimation=0;strokeColor=default;" edge="1" parent="1">
          <mxGeometry width="50" height="50" relative="1" as="geometry">
            <mxPoint x="880" y="439" as="sourcePoint" />
            <mxPoint x="760" y="439" as="targetPoint" />
          </mxGeometry>
        </mxCell>
        <mxCell id="XlbqTxg1h4bi9WBRk2iL-23" value="" style="shape=flexArrow;endArrow=classic;html=1;hachureGap=4;fontFamily=Architects Daughter;fontSource=https%3A%2F%2Ffonts.googleapis.com%2Fcss%3Ffamily%3DArchitects%2BDaughter;rounded=1;entryX=1;entryY=0.5;entryDx=0;entryDy=0;exitX=0;exitY=0.5;exitDx=0;exitDy=0;shadow=0;flowAnimation=0;strokeColor=default;" edge="1" parent="1">
          <mxGeometry width="50" height="50" relative="1" as="geometry">
            <mxPoint x="480" y="439" as="sourcePoint" />
            <mxPoint x="360" y="439" as="targetPoint" />
          </mxGeometry>
        </mxCell>
        <mxCell id="XlbqTxg1h4bi9WBRk2iL-24" value="" style="shape=flexArrow;endArrow=classic;html=1;hachureGap=4;fontFamily=Architects Daughter;fontSource=https%3A%2F%2Ffonts.googleapis.com%2Fcss%3Ffamily%3DArchitects%2BDaughter;rounded=1;entryX=0.5;entryY=0;entryDx=0;entryDy=0;exitX=0.5;exitY=1;exitDx=0;exitDy=0;shadow=0;flowAnimation=0;strokeColor=default;" edge="1" parent="1" source="XlbqTxg1h4bi9WBRk2iL-15" target="XlbqTxg1h4bi9WBRk2iL-14">
          <mxGeometry width="50" height="50" relative="1" as="geometry">
            <mxPoint x="580" y="510" as="sourcePoint" />
            <mxPoint x="460" y="510" as="targetPoint" />
          </mxGeometry>
        </mxCell>
        <mxCell id="XlbqTxg1h4bi9WBRk2iL-25" value="" style="shape=flexArrow;endArrow=classic;html=1;hachureGap=4;fontFamily=Architects Daughter;fontSource=https%3A%2F%2Ffonts.googleapis.com%2Fcss%3Ffamily%3DArchitects%2BDaughter;rounded=1;entryX=0.5;entryY=0;entryDx=0;entryDy=0;exitX=0.5;exitY=1;exitDx=0;exitDy=0;shadow=0;flowAnimation=0;strokeColor=default;" edge="1" parent="1" source="XlbqTxg1h4bi9WBRk2iL-12" target="XlbqTxg1h4bi9WBRk2iL-13">
          <mxGeometry width="50" height="50" relative="1" as="geometry">
            <mxPoint x="1260" y="180" as="sourcePoint" />
            <mxPoint x="1380" y="180" as="targetPoint" />
          </mxGeometry>
        </mxCell>
      </root>
    </mxGraphModel>
  </diagram>
</mxfile>
